{"title":"Iron Man: Rise of Technovore (2013) BRRIP 1080P NO CINAVIA","uid":10356793,"size":1291917468,"categoryP":"video","categoryS":"hd___movies","magnet":"?xt=urn:btih:84bf94a29468496980ed79bcdbe897f276e24543&amp;dn=Iron+Man%3A+Rise+of+Technovore+%282013%29+BRRIP+1080P+NO+CINAVIA&amp;tr=udp%3A%2F%2Ftracker.openbittorrent.com%3A80&amp;tr=udp%3A%2F%2Fopen.demonii.com%3A1337&amp;tr=udp%3A%2F%2Ftracker.coppersurfer.tk%3A6969&amp;tr=udp%3A%2F%2Fexodus.desync.com%3A6969","seeders":2,"leechers":0,"uploader":"jmanwf","files":-1,"time":1402707348,"description":"Storyline\n\nThe young and insane tech genius Ezekiel Stane has developed a new techno-organic armor that seemingly outclasses Iron Man. When Stane unleashes a terrorist attack during the launch of Tony Stark's newest satellite, Iron Man is blamed. Now he must evade S.H.I.E.L.D.'s man hunt and find a way to clear his name.\n\n\n\nFormat : MPEG-4\nFormat profile : Base Media\nCodec ID : isom\nFile size : 1.20 GiB\nDuration : 1h 28mn\nOverall bit rate mode : Variable\nOverall bit rate : 1 951 Kbps\nWriting application : Lavf54.59.106\n\nVideo\nID : 1\nFormat : AVC\nFormat/Info : Advanced Video Codec\nFormat profile : &lt;a class=&quot;__cf_email__&quot; href=&quot;/cdn-cgi/l/email-protection&quot; data-cfemail=&quot;155d7c727d5559213b25&quot;&gt;[email&amp;#160;protected]&lt;/a&gt;&lt;script cf-hash='f9e31' type=&quot;text/javascript&quot;&gt;\n/* &lt;![CDATA[ */!function(){try{var t=&quot;currentScript&quot;in document?document.currentScript:function(){for(var t=document.getElementsByTagName(&quot;script&quot;),e=t.length;e--;)if(t[e].getAttribute(&quot;cf-hash&quot;))return t[e]}();if(t&amp;&amp;t.previousSibling){var e,r,n,i,c=t.previousSibling,a=c.getAttribute(&quot;data-cfemail&quot;);if(a){for(e=&quot;&quot;,r=parseInt(a.substr(0,2),16),n=2;a.length-n;n+=2)i=parseInt(a.substr(n,2),16)^r,e+=String.fromCharCode(i);e=document.createTextNode(e),c.parentNode.replaceChild(e,c)}}}catch(u){}}();/* ]]&gt; */&lt;/script&gt;\nFormat settings, CABAC : Yes\nFormat settings, ReFrames : 4 frames\nCodec ID : avc1\nCodec ID/Info : Advanced Video Coding\nDuration : 1h 28mn\nBit rate : 1 852 Kbps\nWidth : 1 920 pixels\nHeight : 1 080 pixels\nDisplay aspect ratio : 16:9\nFrame rate mode : Constant\nFrame rate : 23.976 fps\nColor space : YUV\nChroma subsampling : 4:2:0\nBit depth : 8 bits\nScan type : Progressive\nBits/(Pixel*Frame) : 0.037\nStream size : 1.14 GiB (95%)\nWriting library : x264 core 130 r2273 b3065e6\nEncoding settings : cabac=1 / ref=4 / deblock=1:0:0 /\n\nAudio\nID : 2\nFormat : AAC\nFormat/Info : Advanced Audio Codec\nFormat profile : LC\nCodec ID : 40\nDuration : 1h 28mn\nBit rate mode : Variable\nBit rate : 96.0 Kbps\nMaximum bit rate : 383 Kbps\nChannel(s) : 2 channels\nChannel positions : Front: L R\nSampling rate : 48.0 KHz\nCompression mode : Lossy\nStream size : 60.2 MiB (5%)","torrent":{"xt":"urn:btih:84bf94a29468496980ed79bcdbe897f276e24543","amp;dn":"Iron+Man%3A+Rise+of+Technovore+%282013%29+BRRIP+1080P+NO+CINAVIA","amp;tr":["udp%3A%2F%2Ftracker.openbittorrent.com%3A80","udp%3A%2F%2Fopen.demonii.com%3A1337","udp%3A%2F%2Ftracker.coppersurfer.tk%3A6969","udp%3A%2F%2Fexodus.desync.com%3A6969"],"infoHash":"84bf94a29468496980ed79bcdbe897f276e24543","infoHashBuffer":{"type":"Buffer","data":[132,191,148,162,148,104,73,105,128,237,121,188,219,232,151,242,118,226,69,67]},"announce":[],"urlList":[]}}